<svg width="26" height="27" viewBox="0 0 26 27" fill="none" xmlns="http://www.w3.org/2000/svg">
    <path d="M26 13.0618C26 20.2756 20.1797 26.1236 13 26.1236C5.8203 26.1236 0 20.2756 0 13.0618C0 5.84797 5.8203 0 13 0C20.1797 0 26 5.84797 26 13.0618Z" fill="#141E30"/>
    <path d="M16.6318 4.29184C15.8366 3.45876 14.7259 2.99999 13.5 2.99999C12.2675 2.99999 11.1532 3.45599 10.3616 4.28391C9.5615 5.12096 9.17166 6.25857 9.26319 7.48697C9.44463 9.91048 11.3452 11.882 13.5 11.882C15.6548 11.882 17.5521 9.91088 17.7364 7.48777C17.8292 6.27046 17.4369 5.13523 16.6318 4.29184Z" fill="#87FAFF"/>
    <path d="M20.6921 20.7639H6.30789C6.11961 20.7663 5.93316 20.7279 5.76209 20.6516C5.59103 20.5752 5.43965 20.4629 5.31897 20.3226C5.05336 20.0145 4.94629 19.5938 5.02557 19.1684C5.37046 17.3119 6.44683 15.7524 8.13861 14.6576C9.6416 13.6857 11.5455 13.1508 13.5 13.1508C15.4545 13.1508 17.3584 13.6861 18.8614 14.6576C20.5532 15.752 21.6295 17.3115 21.9744 19.168C22.0537 19.5934 21.9466 20.0141 21.681 20.3222C21.5604 20.4625 21.409 20.575 21.238 20.6514C21.0669 20.7278 20.8804 20.7663 20.6921 20.7639Z" fill="#87FAFF"/>
</svg>
